<svg version="1.1" xmlns="http://www.w3.org/2000/svg" width="96" height="96" viewBox="0 0 96 96">
	<path d="M94,45c1.1,0,2-0.9,2-2s-0.9-2-2-2H80v-6h14c1.1,0,2-0.9,2-2s-0.9-2-2-2H80v-4c0-3.3-2.7-6-6-6H22c-3.3,0-6,2.7-6,6v4H2 c-1.1,0-2,0.9-2,2s0.9,2,2,2h14v6H2c-1.1,0-2,0.9-2,2s0.9,2,2,2h14v6H2c-1.1,0-2,0.9-2,2s0.9,2,2,2h14v6H2c-1.1,0-2,0.9-2,2 s0.9,2,2,2h14v4c0,3.3,2.7,6,6,6h52c3.3,0,6-2.7,6-6v-4h14c1.1,0,2-0.9,2-2s-0.9-2-2-2H80v-6h14c1.1,0,2-0.9,2-2s-0.9-2-2-2H80v-6 H94z M76,69c0,1.1-0.9,2-2,2H22c-1.1,0-2-0.9-2-2V27c0-1.1,0.9-2,2-2h52c1.1,0,2,0.9,2,2V69z"></path>
	<path d="M62,32c-2.6,0-4.8,1.7-5.7,4H52c-3.3,0-6,2.7-6,6v0.3c-2.3,0.8-4,3-4,5.7c0,3.3,2.7,6,6,6s6-2.7,6-6c0-2.6-1.7-4.8-4-5.7 V42c0-1.1,0.9-2,2-2h4.3c0.8,2.3,3,4,5.7,4c3.3,0,6-2.7,6-6S65.3,32,62,32z M48,50c-1.1,0-2-0.9-2-2s0.9-2,2-2s2,0.9,2,2 S49.1,50,48,50z M62,40c-1.1,0-2-0.9-2-2s0.9-2,2-2s2,0.9,2,2S63.1,40,62,40z"></path>
	<path d="M62,52c-2.6,0-4.8,1.7-5.7,4H38c-1.1,0-2-0.9-2-2V43.7c2.3-0.8,4-3,4-5.7c0-3.3-2.7-6-6-6s-6,2.7-6,6c0,2.6,1.7,4.8,4,5.7 V54c0,3.3,2.7,6,6,6h18.3c0.8,2.3,3,4,5.7,4c3.3,0,6-2.7,6-6S65.3,52,62,52z M34,36c1.1,0,2,0.9,2,2s-0.9,2-2,2s-2-0.9-2-2 S32.9,36,34,36z M62,60c-1.1,0-2-0.9-2-2s0.9-2,2-2s2,0.9,2,2S63.1,60,62,60z"></path>
</svg>
