<svg version="1.1" xmlns="http://www.w3.org/2000/svg" width="96" height="96" viewBox="0 0 96 96">
	<path d="M82,46h-6.1c-1-13.9-12.1-24.9-25.9-25.9V14c0-1.1-0.9-2-2-2s-2,0.9-2,2v6.1c-13.9,1-24.9,12.1-25.9,25.9H14 c-1.1,0-2,0.9-2,2s0.9,2,2,2h6.1c1,13.9,12.1,24.9,25.9,25.9V82c0,1.1,0.9,2,2,2s2-0.9,2-2v-6.1c13.9-1,24.9-12.1,25.9-25.9H82 c1.1,0,2-0.9,2-2S83.1,46,82,46z M71.9,46H59.8C59,41,55,37,50,36.2V24.1C61.7,25.1,70.9,34.3,71.9,46z M48,56c-4.4,0-8-3.6-8-8 s3.6-8,8-8s8,3.6,8,8S52.4,56,48,56z M46,24.1v12.1C41,37,37,41,36.2,46H24.1C25.1,34.3,34.3,25.1,46,24.1z M24.1,50h12.1 c0.8,5,4.8,9,9.8,9.8v12.1C34.3,70.9,25.1,61.7,24.1,50z M50,71.9V59.8c5-0.8,9-4.8,9.8-9.8h12.1C70.9,61.7,61.7,70.9,50,71.9z"></path>
</svg>
