<svg version="1.1" xmlns="http://www.w3.org/2000/svg" width="96" height="96" viewBox="0 0 96 96">
	<path d="M92,58c0,1.1-0.9,2-2,2h-2v-2V46v-2h2c1.1,0,2,0.9,2,2V58z M74,68H55.7c-1.6-0.8-4.5-2.1-7.7-2.1 c-3.2,0-6.2,1.3-7.7,2.1H22c-5.5,0-10-4.5-10-10V46c0-5.5,4.5-10,10-10h14h24h14c5.5,0,10,4.5,10,10v12C84,63.5,79.5,68,74,68L74,68 z M8,60H6c-1.1,0-2-0.9-2-2V46c0-1.1,0.9-2,2-2h2v2v12V60z M40,30c0-1.1,0.9-2,2-2h12c1.1,0,2,0.9,2,2v2H40V30z M90,40h-3.4 c-2.2-4.7-7.1-8-12.6-8H60v-2c0-3.3-2.7-6-6-6H42c-3.3,0-6,2.7-6,6v2H22c-5.6,0-10.4,3.3-12.6,8H6c-3.3,0-6,2.7-6,6v12 c0,3.3,2.7,6,6,6h3.4c2.2,4.7,7,8,12.6,8h19.3c0,0,3.3-2.1,6.7-2.1s6.7,2.1,6.7,2.1H74c5.6,0,10.4-3.3,12.6-8H90c3.3,0,6-2.7,6-6V46 C96,42.7,93.3,40,90,40L90,40z"></path>
</svg>
