<svg version="1.1" xmlns="http://www.w3.org/2000/svg" width="96" height="96" viewBox="0 0 96 96">
	<path d="M77,17c0-3.3-2.7-6-6-6H25c-3.3,0-6,2.7-6,6v10.1l3.9,33.4L19,66.4V85h58V66.4l-3.9-5.9L77,27.1V17z M73,81H23V71h50V81z M37,65v-2h4v2h4v-3c0-1.1,0.9-2,2-2s2,0.9,2,2v3h4v-2h2v2h4v-3c0-1.1,0.9-2,2-2s2,0.9,2,2v3h4v-2h2.9l2.7,4H23.4l2.7-4H33v2H37z M33,49c0-1.1,0.9-2,2-2s2,0.9,2,2s-0.9,2-2,2S33,50.1,33,49z M69.2,59h-3c-1-1.8-3-3-5.2-3s-4.2,1.2-5.2,3h-3.6c-1-1.8-3-3-5.2-3 s-4.2,1.2-5.2,3H37v-4.3c2.3-0.8,4-3,4-5.7c0-3.3-2.7-6-6-6s-6,2.7-6,6c0,2.6,1.7,4.8,4,5.7V59h-6.2L23,27h50L69.2,59z M73,23H23 v-6c0-1.1,0.9-2,2-2h46c1.1,0,2,0.9,2,2V23z"></path>
	<path d="M62 74h8v4h-8z"></path>
</svg>
